<svg xmlns="http://www.w3.org/2000/svg" viewBox="0 0 512 512">
  <defs>
    <radialGradient id="bgCore" cx="50%" cy="44%" r="72%">
      <stop offset="0%" stop-color="#113529" />
      <stop offset="62%" stop-color="#0b221a" />
      <stop offset="100%" stop-color="#06140f" />
    </radialGradient>
    <linearGradient id="goldLine" x1="0" y1="0" x2="1" y2="1">
      <stop offset="0%" stop-color="#a18552" />
      <stop offset="48%" stop-color="#7f663b" />
      <stop offset="100%" stop-color="#b1945f" />
    </linearGradient>
    <filter id="goldGlow" x="-25%" y="-25%" width="150%" height="150%">
      <feGaussianBlur stdDeviation="2" result="b" />
      <feMerge>
        <feMergeNode in="b" />
        <feMergeNode in="SourceGraphic" />
      </feMerge>
    </filter>
  </defs>

  <rect width="512" height="512" rx="108" fill="url(#bgCore)" />
  <path d="M66 146C152 95 253 90 347 137" fill="none" stroke="#1b4a38" stroke-opacity=".25" stroke-width="12" />
  <path d="M86 392c86-42 196-45 334 8" fill="none" stroke="#173f31" stroke-opacity=".24" stroke-width="11" />

  <!-- Centered pen-line camera -->
  <g fill="none" stroke="url(#goldLine)" stroke-linecap="round" stroke-linejoin="round" filter="url(#goldGlow)">
    <path d="M147 217h67l21-28h42l21 28h67c17 0 31 14 31 31v94c0 17-14 31-31 31H147c-17 0-31-14-31-31v-94c0-17 14-31 31-31z" stroke-width="11.5" />
    <circle cx="256" cy="256" r="64" stroke-width="10.5" />
    <circle cx="256" cy="256" r="30" stroke-width="5.8" opacity=".95" />
    <path d="M337 244h31" stroke-width="7.2" opacity=".9" />
    <path d="M196 188h120" stroke-width="5.6" opacity=".62" />
  </g>
</svg>
